<svg width="640" height="851" viewBox="0 0 640 851" fill="none" xmlns="http://www.w3.org/2000/svg">
<path d="M305.282 180.487L262.278 205.315C227.027 225.713 182.117 216.815 157.306 184.518C157.544 180.138 159.977 176.173 163.775 173.978L327.389 79.5224C331.185 77.3256 335.834 77.1933 339.749 79.1707C342.354 85.4475 344.152 92.0294 345.102 98.7588C349.745 131.574 333.986 163.919 305.282 180.487V180.487Z" fill="#323B80"/>
<path d="M331.804 217.302L324.802 218.802V271.401C324.793 275.974 321.593 279.921 317.12 280.873V303.66H223.574V226.807H223.728V186.341C223.728 162.271 243.241 142.758 267.311 142.758H324.426L324.802 146.57L331.804 217.302Z" fill="#DB666E"/>
<path d="M105.271 98.9673L114.994 128.893L93.166 113.029V332.121H85.913V113.029L64.0851 128.893L73.8084 98.9673L48.3499 80.4748H79.8162L89.5395 50.5448L99.2628 80.4748H130.729L105.271 98.9673Z" fill="#323B80"/>
<path d="M0 1213.29L640 1211.27L448.141 425.276C448.141 338.886 378.109 268.854 291.72 268.854H266.572C180.182 268.854 110.15 338.886 110.15 425.276L0 1213.29Z" fill="#323B80"/>
<path d="M427.611 257.072C471.681 257.072 507.407 221.346 507.407 177.276C507.407 133.206 471.681 97.4806 427.611 97.4806C383.541 97.4806 347.815 133.206 347.815 177.276C347.815 221.346 383.541 257.072 427.611 257.072Z" fill="#848ED6"/>
<path d="M324.802 142.758V146.57L324.426 142.758H324.802Z" fill="#DB666E"/>
<path d="M324.425 142.761H324.142L324.3 141.508L324.425 142.761Z" fill="#DB666E"/>
<path d="M270.271 184.781C270.271 184.781 290.531 167.521 309.043 184.781C309.043 184.781 293.033 200.289 270.271 184.781Z" fill="white"/>
<path d="M289.78 191.039C293.511 191.039 296.536 188.014 296.536 184.283C296.536 180.552 293.511 177.527 289.78 177.527C286.049 177.527 283.024 180.552 283.024 184.283C283.024 188.014 286.049 191.039 289.78 191.039Z" fill="black"/>
<path d="M271.772 205.783C271.772 205.783 292.031 188.519 310.544 205.783C310.544 205.783 294.534 221.304 271.772 205.783Z" fill="white"/>
<path d="M291.283 212.05C295.014 212.05 298.039 209.025 298.039 205.294C298.039 201.563 295.014 198.538 291.283 198.538C287.552 198.538 284.527 201.563 284.527 205.294C284.527 209.025 287.552 212.05 291.283 212.05Z" fill="black"/>
<path d="M225.318 231.557C234.018 231.557 241.085 224.615 241.085 216.048V210.295C239.011 210.315 237.014 209.51 235.534 208.057C234.053 206.604 233.211 204.623 233.193 202.548V199.549C233.209 197.476 234.048 195.494 235.525 194.04C237.002 192.586 238.996 191.778 241.069 191.794H243.09V185.972C243.09 173.718 253.198 163.785 265.626 163.785H317.453C325.219 163.785 331.518 157.587 331.518 149.937V146.634C331.518 137.869 324.301 130.766 315.403 130.766H270.696C242.828 130.766 220.236 153.002 220.236 180.446V218.789C220.236 223.503 221.448 228.682 225.281 231.512C225.299 231.521 225.312 231.537 225.318 231.557Z" fill="black"/>
<path d="M546.071 267.749V451.866C545.824 479.47 523.376 501.717 495.771 501.717C468.165 501.717 445.718 479.47 445.47 451.866V277.343H402.461V263.735C402.461 246.807 416.183 233.083 433.111 233.081H460.364V231.213C460.364 227.453 457.316 224.405 453.556 224.405H402.21C396.54 224.293 392.001 219.664 392.001 213.992C392.001 208.32 396.54 203.691 402.21 203.58H466.154C474.468 203.582 481.208 210.321 481.21 218.636V233.081H499.084V201.421C499.082 197.664 496.036 194.619 492.279 194.616H440.934C437.165 194.691 433.65 192.722 431.744 189.47C429.838 186.218 429.838 182.19 431.744 178.937C433.65 175.685 437.165 173.717 440.934 173.791H504.837C508.83 173.79 512.659 175.375 515.483 178.198C518.306 181.021 519.893 184.85 519.893 188.843V233.081H525.1V175.392C525.098 171.64 522.06 168.597 518.308 168.588H466.962C461.292 168.476 456.753 163.847 456.753 158.175C456.753 152.503 461.292 147.874 466.962 147.763H530.869C534.863 147.763 538.692 149.349 541.516 152.172C544.339 154.996 545.925 158.825 545.925 162.819V267.749H546.071Z" fill="#DB666E"/>
<path d="M245.755 212.798V282.967C245.755 291.624 249.194 299.927 255.316 306.048C261.438 312.169 269.741 315.607 278.398 315.606H299.583C310.116 315.607 320.219 311.423 327.667 303.975C335.116 296.527 339.301 286.425 339.301 275.892V243.455C339.301 231.496 329.606 221.801 317.647 221.801H255.514V198.789H245.755C245.755 198.789 245.997 212.555 245.755 212.798Z" fill="black"/>
<path d="M179.454 295.039C179.455 297.801 178.359 300.45 176.406 302.403C174.454 304.357 171.805 305.454 169.043 305.454H117.698C113.939 305.454 110.892 308.5 110.889 312.258V314.134H136.93C153.857 314.134 167.58 327.857 167.58 344.784V358.388H124.304V529.43C124.304 557.209 101.784 579.728 74.0054 579.728C46.2264 579.728 23.707 557.209 23.707 529.43V345.309H24.1356V243.86C24.149 235.554 30.8858 228.828 39.1915 228.828H103.094C108.765 228.94 113.304 233.569 113.304 239.241C113.304 244.912 108.765 249.541 103.094 249.653H51.749C49.9436 249.652 48.2119 250.368 46.935 251.645C45.6581 252.921 44.9406 254.652 44.9406 256.457V314.134H50.1479V269.892C50.1479 261.577 56.8887 254.836 65.2039 254.836H129.127C132.896 254.762 136.411 256.73 138.317 259.982C140.223 263.235 140.223 267.263 138.317 270.515C136.411 273.768 132.896 275.736 129.127 275.661H77.7816C74.023 275.664 70.9773 278.711 70.9773 282.47V314.134H90.064V299.685C90.0619 295.687 91.6494 291.853 94.4767 289.028C97.304 286.202 101.139 284.616 105.136 284.621H169.043C171.806 284.621 174.455 285.719 176.407 287.673C178.36 289.627 179.456 292.277 179.454 295.039Z" fill="#DB666E"/>
<path d="M84.9945 229.035C84.9945 229.035 86.7774 240.464 112.822 237.015" stroke="white" stroke-width="0.94" stroke-miterlimit="10" stroke-linecap="round"/>
<path d="M111.028 255.062C111.028 255.062 112.811 266.492 138.856 263.047" stroke="white" stroke-width="0.94" stroke-miterlimit="10" stroke-linecap="round"/>
<path d="M150.939 284.856C150.939 284.856 152.722 296.285 178.766 292.837" stroke="white" stroke-width="0.94" stroke-miterlimit="10" stroke-linecap="round"/>
<path d="M485.061 147.969C485.061 147.969 483.278 159.399 457.233 155.954" stroke="white" stroke-width="0.94" stroke-miterlimit="10" stroke-linecap="round"/>
<path d="M459.028 174.018C459.028 174.018 457.246 185.448 431.201 181.999" stroke="white" stroke-width="0.94" stroke-miterlimit="10" stroke-linecap="round"/>
<path d="M420.735 203.806C420.735 203.806 418.952 215.235 392.907 211.79" stroke="white" stroke-width="0.94" stroke-miterlimit="10" stroke-linecap="round"/>
<path d="M345.672 92.6201L165.126 194.503C159.575 190.26 154.583 185.333 150.268 179.839C150.538 175.347 153.082 171.303 157.016 169.117L190.572 150.172L155.209 0L292.669 92.5837L327.237 73.0805C331.2 70.845 336.011 70.7103 340.093 72.7206L345.672 92.6201Z" fill="#848ED6"/>
</svg>
