<svg width="67" height="63" viewBox="0 0 67 63" fill="none" xmlns="http://www.w3.org/2000/svg">
<path d="M33.5 8.54575V18.0161V24.8403M33.5 63.0001V49.9087M33.5 36.8174L61.4236 8.54575M33.5 36.8174L5.57642 8.54575M33.5 36.8174V49.9087M33.5 36.8174V24.8403M33.5 49.9087L65 18.0161M33.5 49.9087L2 18.0161M33.5 24.8403L56.059 2.00009M33.5 24.8403L10.941 2.00009" stroke="#DBDBDB" stroke-width="3"/>
<path fill-rule="evenodd" clip-rule="evenodd" d="M34.956 2.34715C34.5665 2.38171 34.193 2.52047 33.8738 2.74921C33.5547 2.97795 33.3013 3.28846 33.1396 3.64895C32.6331 4.76758 33.1032 6.08337 34.1895 6.58762C34.4761 6.72065 34.7774 6.78387 35.0743 6.78443C34.4147 7.16521 33.5968 7.23171 32.862 6.89067C31.6399 6.32339 31.1111 4.84309 31.6809 3.5847C32.2507 2.3263 33.7036 1.76582 34.9257 2.3331L34.9557 2.34703L34.956 2.34715Z" fill="#DBDBDB"/>
</svg>
