<svg width="164" height="63" viewBox="0 0 164 63" fill="none" xmlns="http://www.w3.org/2000/svg">
<path d="M33.5 8.54575V18.0161V24.8403M33.5 63.0001V49.9087M33.5 36.8174L61.4236 8.54575M33.5 36.8174L5.57642 8.54575M33.5 36.8174V49.9087M33.5 36.8174V24.8403M33.5 49.9087L65 18.0161M33.5 49.9087L2 18.0161M33.5 24.8403L56.059 2.00009M33.5 24.8403L10.941 2.00009" stroke="#DBDBDB" stroke-width="3"/>
<path fill-rule="evenodd" clip-rule="evenodd" d="M34.956 2.34715C34.5665 2.38171 34.193 2.52047 33.8738 2.74921C33.5547 2.97795 33.3013 3.28846 33.1396 3.64895C32.6331 4.76758 33.1032 6.08337 34.1895 6.58762C34.4761 6.72065 34.7774 6.78387 35.0743 6.78443C34.4147 7.16521 33.5968 7.23171 32.862 6.89067C31.6399 6.32339 31.1111 4.84309 31.6809 3.5847C32.2507 2.3263 33.7036 1.76582 34.9257 2.3331L34.9557 2.34703L34.956 2.34715Z" fill="#DBDBDB"/>
<path d="M87.6097 24.084H88.7097V28H78.2157V27.054L80.3717 26.614L80.1077 26.988V13.7L80.3717 14.096L78.2157 13.7V12.754L84.0677 12.644V13.59L81.6697 14.096L81.9117 13.7V26.988L81.5817 26.658H87.4997L87.1917 26.988L87.6097 24.084ZM94.3666 28.198C93.3986 28.198 92.5993 27.8973 91.9686 27.296C91.338 26.6947 91.0226 25.7707 91.0226 24.524V17.506L91.2426 17.814L89.2846 17.396V16.45L92.7826 16.318V24.216C92.7826 25.096 92.988 25.7487 93.3986 26.174C93.8093 26.5993 94.3593 26.812 95.0486 26.812C95.5913 26.812 96.178 26.6653 96.8086 26.372C97.4393 26.0787 98.0626 25.624 98.6786 25.008L98.5466 25.404V17.462L98.7666 17.814L96.8086 17.396V16.45L100.307 16.296V26.922L100.043 26.636L102.023 27.01V27.978L98.9426 28.11L98.6786 25.932L98.9206 26.02C98.202 26.768 97.4393 27.318 96.6326 27.67C95.8406 28.022 95.0853 28.198 94.3666 28.198ZM108.559 28.198C107.621 28.198 106.77 27.9707 106.007 27.516C105.259 27.0467 104.665 26.372 104.225 25.492C103.8 24.612 103.587 23.556 103.587 22.324C103.587 21.2533 103.734 20.3367 104.027 19.574C104.335 18.7967 104.746 18.1587 105.259 17.66C105.773 17.1613 106.359 16.7947 107.019 16.56C107.694 16.3107 108.391 16.186 109.109 16.186C109.696 16.186 110.319 16.2667 110.979 16.428C111.654 16.5893 112.241 16.8093 112.739 17.088L112.651 19.838H111.463L111.177 17.77L111.353 17.968C110.987 17.792 110.598 17.6673 110.187 17.594C109.777 17.5207 109.41 17.484 109.087 17.484C108.325 17.484 107.665 17.682 107.107 18.078C106.565 18.4593 106.147 19.002 105.853 19.706C105.56 20.41 105.413 21.246 105.413 22.214C105.413 23.2113 105.567 24.0547 105.875 24.744C106.183 25.4333 106.601 25.954 107.129 26.306C107.672 26.658 108.281 26.834 108.955 26.834C109.483 26.834 110.041 26.724 110.627 26.504C111.214 26.284 111.823 25.954 112.453 25.514L113.069 26.482C112.307 27.0687 111.544 27.5013 110.781 27.78C110.019 28.0587 109.278 28.198 108.559 28.198ZM123.346 27.01L123.06 26.614L125.084 27.01V27.978L122.004 28.11L121.74 25.998L121.894 26.064C121.248 26.768 120.552 27.3033 119.804 27.67C119.056 28.022 118.33 28.198 117.626 28.198C116.775 28.198 116.056 27.9267 115.47 27.384C114.883 26.8413 114.59 26.02 114.59 24.92C114.59 24.0547 114.773 23.3947 115.14 22.94C115.506 22.4707 116.012 22.1407 116.658 21.95C117.303 21.7593 118.051 21.664 118.902 21.664H121.784L121.586 21.884V19.772C121.586 18.9653 121.373 18.3933 120.948 18.056C120.522 17.704 119.936 17.528 119.188 17.528C118.792 17.528 118.366 17.572 117.912 17.66C117.472 17.7333 117.002 17.858 116.504 18.034L116.768 17.748L116.548 19.75H115.382L115.206 17.022C116.042 16.7433 116.826 16.538 117.56 16.406C118.293 16.2593 118.968 16.186 119.584 16.186C120.757 16.186 121.674 16.45 122.334 16.978C123.008 17.4913 123.346 18.32 123.346 19.464V27.01ZM116.372 24.766C116.372 25.4847 116.54 26.0127 116.878 26.35C117.23 26.6873 117.67 26.856 118.198 26.856C118.711 26.856 119.276 26.702 119.892 26.394C120.522 26.0713 121.131 25.6387 121.718 25.096L121.586 25.558V22.61L121.784 22.808H119.166C118.124 22.808 117.398 22.9693 116.988 23.292C116.577 23.6 116.372 24.0913 116.372 24.766ZM128.557 19.2C128.557 19.6693 128.711 20.036 129.019 20.3C129.327 20.564 129.723 20.784 130.207 20.96C130.691 21.1213 131.204 21.2827 131.747 21.444C132.29 21.6053 132.803 21.8033 133.287 22.038C133.771 22.2727 134.167 22.5953 134.475 23.006C134.783 23.4167 134.937 23.9593 134.937 24.634C134.937 25.4113 134.724 26.064 134.299 26.592C133.874 27.12 133.294 27.5233 132.561 27.802C131.842 28.066 131.036 28.198 130.141 28.198C129.598 28.198 129.041 28.154 128.469 28.066C127.897 27.978 127.31 27.8533 126.709 27.692L126.863 24.744H127.985L128.205 26.9L128.007 26.658C128.344 26.746 128.711 26.8193 129.107 26.878C129.503 26.9367 129.87 26.966 130.207 26.966C130.735 26.966 131.219 26.8927 131.659 26.746C132.114 26.5847 132.48 26.3573 132.759 26.064C133.038 25.756 133.177 25.3747 133.177 24.92C133.177 24.436 133.023 24.0547 132.715 23.776C132.422 23.4973 132.033 23.27 131.549 23.094C131.065 22.918 130.552 22.7567 130.009 22.61C129.481 22.4487 128.975 22.2507 128.491 22.016C128.007 21.7667 127.611 21.444 127.303 21.048C126.995 20.652 126.841 20.1093 126.841 19.42C126.841 18.672 127.032 18.0633 127.413 17.594C127.809 17.11 128.322 16.758 128.953 16.538C129.598 16.3033 130.288 16.186 131.021 16.186C131.52 16.186 132.07 16.2373 132.671 16.34C133.272 16.4427 133.888 16.5967 134.519 16.802L134.409 19.288H133.287L132.957 17.462L133.221 17.77C132.458 17.55 131.74 17.44 131.065 17.44C130.346 17.44 129.745 17.594 129.261 17.902C128.792 18.1953 128.557 18.628 128.557 19.2ZM154.335 27.032L153.829 26.592L155.897 27.054V28H150.177V27.054L152.465 26.614L152.289 26.922L151.123 23.402L151.453 23.666H144.721L145.029 23.402L143.775 26.878L143.665 26.636L145.909 27.054V28H140.497V27.054L142.521 26.592L142.059 26.988L147.427 12.666L149.253 12.6L154.335 27.032ZM145.271 22.632L145.095 22.346H151.101L150.903 22.654L148.021 13.7L148.439 13.722L145.271 22.632ZM157.388 26.966C157.388 26.614 157.505 26.3353 157.74 26.13C157.974 25.9247 158.246 25.822 158.554 25.822C158.906 25.822 159.184 25.9247 159.39 26.13C159.595 26.3353 159.698 26.614 159.698 26.966C159.698 27.318 159.58 27.5967 159.346 27.802C159.126 28.0073 158.862 28.11 158.554 28.11C158.202 28.11 157.916 28.0073 157.696 27.802C157.49 27.5967 157.388 27.318 157.388 26.966Z" fill="white"/>
<path d="M84.756 37.6C85.768 37.6 86.692 37.754 87.528 38.062C88.3787 38.3553 89.112 38.81 89.728 39.426C90.344 40.042 90.8207 40.8193 91.158 41.758C91.51 42.682 91.686 43.782 91.686 45.058C91.686 46.7887 91.3707 48.248 90.74 49.436C90.124 50.6093 89.266 51.4967 88.166 52.098C87.0807 52.6993 85.8193 53 84.382 53H78.09V51.834L80.224 51.328L79.894 51.812V38.854L80.246 39.338L78.09 38.876V37.71L82.512 37.6H84.756ZM84.47 51.35C85.0713 51.35 85.658 51.2547 86.23 51.064C86.802 50.8733 87.3153 50.5507 87.77 50.096C88.2393 49.6413 88.606 49.018 88.87 48.226C89.134 47.4193 89.266 46.4147 89.266 45.212C89.266 44.0387 89.134 43.0707 88.87 42.308C88.6207 41.5307 88.276 40.922 87.836 40.482C87.4107 40.0273 86.9267 39.712 86.384 39.536C85.8413 39.3453 85.284 39.25 84.712 39.25H81.764L82.138 38.876V51.724L81.764 51.35H84.47ZM108.116 49.216H109.48L109.458 53H98.238V51.834L100.372 51.328L100.042 51.812V38.854L100.35 39.316L98.238 38.876V37.71L102.242 37.6H109.194V41.23H107.852L107.434 38.92L107.874 39.25H101.912L102.286 38.876V44.706L101.912 44.332H107.566V45.938H101.912L102.286 45.498V51.724L101.912 51.35H108.16L107.698 51.724L108.116 49.216ZM120.919 53.022L116.167 38.898L116.739 39.316L114.649 38.876V37.71L120.677 37.6V38.766L118.367 39.272L118.631 38.7L122.459 51.042H122.129L126.243 38.832L126.441 39.294L124.197 38.876V37.71L129.829 37.6V38.766L127.739 39.272L128.289 38.854L123.295 53.022H120.919Z" fill="#FC825D"/>
</svg>
